<?xml version="1.0" encoding="utf-8"?>
<!-- Generator: Adobe Illustrator 16.0.0, SVG Export Plug-In . SVG Version: 6.00 Build 0)  -->
<!DOCTYPE svg PUBLIC "-//W3C//DTD SVG 1.1//EN" "http://www.w3.org/Graphics/SVG/1.1/DTD/svg11.dtd">
<svg version="1.1" id="Calque_1" xmlns="http://www.w3.org/2000/svg" xmlns:xlink="http://www.w3.org/1999/xlink" x="0px" y="0px"
	 width="1053px" height="1053px" viewBox="0 0 1053 1053" enable-background="new 0 0 1053 1053" xml:space="preserve">
<path fill="#010202" d="M1022.113,347.056c-18.168-50.172-43.853-97.214-76.339-139.82c-32.156-42.172-70.336-79.171-113.48-109.97
	C742.698,33.307,636.956-0.5,526.5-0.5c-26.607,0-53.407,2.017-79.655,5.994c-16.222,2.463-32.794,5.812-49.255,9.954
	c-28.443,7.15-56.743,16.918-84.113,29.032C221.312,85.272,143.05,151.317,87.148,235.474C29.808,321.796-0.5,422.431-0.5,526.5
	c0,36.671,3.858,73.509,11.468,109.49c3.891,18.419,8.99,37.223,15.155,55.89c29.67,89.813,83.296,170.234,155.08,232.568
	c72.404,62.872,160.405,104.745,254.489,121.091c0,0,0,0,0,0c30.349,5.282,60.9,7.961,90.808,7.961
	c94.509,0,187.205-25.332,268.07-73.259c78.486-46.517,143.962-112.962,189.347-192.151c14.609-25.489,27.018-51.919,36.879-78.555
	c21.676-58.502,32.68-120.026,32.704-182.864V526.5C1053.5,464.93,1042.94,404.556,1022.113,347.056z M526.5,0.5
	c110.246,0,215.787,33.743,305.213,97.58c43.062,30.741,81.171,67.67,113.266,109.763c32.143,42.154,57.611,88.654,75.717,138.239
	L448.381,6.274C474.137,2.442,500.412,0.5,526.5,0.5z M0.5,526.5c0-103.871,30.25-204.315,87.481-290.473
	C143.515,152.424,221.163,86.728,312.59,45.968l-36.625,71.616L11.656,634.4C4.252,598.926,0.5,562.633,0.5,526.5z M11.983,635.957
	l86.078-168.313L314.043,45.322c27.156-12.007,55.221-21.7,83.435-28.815l83.639,136.179l270.545,440.493l-724.72,97.993
	C20.867,672.728,15.834,654.154,11.983,635.957z M435.551,1044.5c-93.789-16.354-181.505-58.123-253.692-120.807
	C110.363,861.61,56.914,781.549,27.262,692.138l724.163-97.918L659.93,724.646L435.551,1044.5z M794.061,979.381
	C713.35,1027.216,620.829,1052.5,526.5,1052.5c-29.595,0-59.823-2.628-89.86-7.812l126.998-181.036l188.948-269.347l9.842,8.277
	l220.414,185.372C937.551,866.836,872.279,933.022,794.061,979.381z M983.347,787.072L851.064,675.82l-95.642-80.437
	l264.271,114.248C1009.944,735.887,997.72,761.934,983.347,787.072z M1020.041,708.693L754.104,593.725l298.395-66.43
	C1052.403,589.622,1041.484,650.643,1020.041,708.693z M752.729,593.006l-9.369-15.255L398.495,16.252
	c16.151-4.043,32.407-7.32,48.323-9.743l25.533,15.16l548.883,325.896c20.721,57.271,31.24,117.39,31.266,178.705L752.729,593.006z"
	/>
</svg>
