<?xml version="1.0" encoding="utf-8"?>
<!-- Generator: Adobe Illustrator 16.0.0, SVG Export Plug-In . SVG Version: 6.00 Build 0)  -->
<!DOCTYPE svg PUBLIC "-//W3C//DTD SVG 1.1//EN" "http://www.w3.org/Graphics/SVG/1.1/DTD/svg11.dtd">
<svg version="1.1" id="Calque_1" xmlns="http://www.w3.org/2000/svg" xmlns:xlink="http://www.w3.org/1999/xlink" x="0px" y="0px"
	 width="1053px" height="1053px" viewBox="0 0 1053 1053" enable-background="new 0 0 1053 1053" xml:space="preserve">
<path d="M1038.007,399.248c-9.976-40.193-24.766-79.221-43.957-115.999c-37.619-72.094-92.397-135.526-158.41-183.438
	c-29.468-21.389-61.301-39.775-94.613-54.647C673.145,14.864,600.965-0.5,526.494-0.5c-33.838,0-68.008,3.324-101.585,9.884
	c-0.002,0-0.003,0-0.005,0c-19.292,3.767-38.124,8.509-55.972,14.096c-66.818,20.91-127.979,54.524-181.784,99.909
	c-53.327,44.982-96.615,99.127-128.663,160.932c-18.237,35.182-32.413,72.045-42.132,109.565C5.171,437.016-0.5,481.634-0.5,526.5
	c0,72.896,14.632,143.484,43.49,209.803c27.854,64.014,67.62,121.154,118.192,169.833c8.51,8.19,17.11,15.96,25.563,23.094
	c46.556,39.318,98.948,70,155.72,91.191c58.803,21.95,120.719,33.079,184.028,33.079c60.527,0,119.886-10.205,176.426-30.331
	c54.587-19.431,105.404-47.665,151.039-83.92c30.086-23.894,57.54-51.009,81.599-80.592c37.386-45.989,66.522-97.415,86.601-152.848
	c20.789-57.396,31.33-117.726,31.33-179.31C1053.488,483.45,1048.279,440.637,1038.007,399.248z M741.043,46.268
	c33.028,14.78,64.597,33.023,93.833,54.226l12.318,100.994l49.274,403.978l-49.396-21.354l-320.473-138.54L741.043,46.268z
	 M187.793,124.153c53.703-45.298,114.747-78.849,181.411-99.711l55.904-14.079C458.603,3.818,492.713,0.5,526.494,0.5
	c74.148,0,146.024,15.262,213.633,45.359L525.663,445.203L59.641,284.267C91.601,222.791,134.713,168.927,187.793,124.153z
	 M59.175,285.165l465.672,160.814l-113.914,85.046l-117.767,87.923l-0.002-0.002L55.7,425.092l-38.298-31.265
	C27.064,356.623,41.118,320.067,59.175,285.165z M43.907,735.904C15.104,669.712,0.5,599.259,0.5,526.5
	c0-44.519,5.594-88.793,16.627-131.607l132.587,108.235l142.85,116.613L161.369,904.927
	C111.135,856.446,71.616,799.582,43.907,735.904z M162.132,905.661l64.146-139.439l67.328-146.354l139.369-104.051l90.726-67.734
	L212.394,891.874l-25.42,36.238C178.757,921.162,170.402,913.611,162.132,905.661z M702.585,1022.227
	c-56.433,20.088-115.679,30.273-176.091,30.273c-63.189,0-124.988-11.108-183.678-33.016
	c-56.522-21.099-108.695-51.621-155.076-90.724l338.151-482.06l327.086,492.051C807.521,974.801,756.925,1002.884,702.585,1022.227z
	 M853.764,938.127L527.253,446.943l265.893,114.945l103.489,44.738l3.068,20.31l34.939,231.262
	C910.775,887.52,883.568,914.407,853.764,938.127z M1021.218,705.47c-19.911,54.972-48.752,106-85.723,151.678l-37.913-250.945
	c-0.005-0.035-0.015-0.069-0.029-0.103L878.24,447.764l-42.259-346.467c65.474,47.741,119.81,110.795,157.183,182.415
	c19.154,36.708,33.915,75.661,43.872,115.777c10.253,41.31,15.452,84.042,15.452,127.011
	C1052.488,587.968,1041.968,648.182,1021.218,705.47z"/>
</svg>
