<?xml version="1.0" encoding="utf-8"?>
<!-- Generator: Adobe Illustrator 16.0.0, SVG Export Plug-In . SVG Version: 6.00 Build 0)  -->
<!DOCTYPE svg PUBLIC "-//W3C//DTD SVG 1.1//EN" "http://www.w3.org/Graphics/SVG/1.1/DTD/svg11.dtd">
<svg version="1.1" id="Calque_1" xmlns="http://www.w3.org/2000/svg" xmlns:xlink="http://www.w3.org/1999/xlink" x="0px" y="0px"
	 width="1053px" height="1053px" viewBox="0 0 1053 1053" enable-background="new 0 0 1053 1053" xml:space="preserve">
<path fill="#010202" d="M957.821,223.89c-37.87-53.883-84.828-99.708-139.569-136.202c-55.765-37.176-117.185-63.011-182.555-76.79
	C599.821,3.335,563.081-0.5,526.494-0.5c-43.719,0-87.177,5.371-129.167,15.963c-40.765,10.283-80.295,25.518-117.493,45.28
	c-72.98,38.772-136.77,95.087-184.47,162.855c-17.768,25.241-33.352,52.083-46.319,79.778C16.169,373.592-0.5,448.662-0.5,526.5
	c0,82.822,18.689,162.098,55.55,235.622c35.131,70.077,86.56,132.617,148.726,180.858c39.38,30.563,82.787,55.328,129.016,73.607
	c61.899,24.493,127.07,36.912,193.703,36.912c64.924,0,128.319-11.695,188.428-34.76c58.012-22.261,111.279-54.417,158.321-95.575
	c51.421-44.991,93.06-98.612,123.759-159.375c31.605-62.557,50.118-129.854,55.024-200.022c0.997-14.164,1.462-26.006,1.462-37.268
	C1053.488,417.566,1020.407,312.925,957.821,223.89z M635.937,11.971c65.08,13.775,126.229,39.528,181.761,76.549
	c54.511,36.34,101.289,81.95,139.042,135.57L434.557,662.995L610.828,93.14L635.937,11.971z M280.303,61.626
	c37.127-19.725,76.582-34.93,117.27-45.193C439.481,5.86,482.857,0.5,526.494,0.5c36.335,0,72.823,3.79,108.46,11.264L433.385,663.4
	L96.394,223.873C143.981,156.365,207.567,100.268,280.303,61.626z M55.943,761.674C19.154,688.29,0.5,609.166,0.5,526.5
	c0-77.212,16.435-151.697,48.848-221.407l153.911,636.219C141.715,893.281,90.796,831.195,55.943,761.674z M332.646,1015.455
	c-45.894-18.203-88.995-42.814-128.118-73.156L50.025,303.641c12.832-27.383,28.228-53.927,45.766-78.91l229.503,299.334
	l107.732,140.512L332.646,1015.455z M714.563,1017.807c-59.993,23.021-123.269,34.693-188.069,34.693
	c-66.356,0-131.257-12.338-192.914-36.676l26.428-92.38l73.871-258.214l159.112,93.553l279.072,164.086
	C825.238,963.729,772.25,995.671,714.563,1017.807z M996.109,763.339c-30.587,60.54-72.055,113.979-123.253,158.836L435.023,664.743
	l593.825-96.808l22.136-3.608C1046.021,634.137,1027.561,701.089,996.109,763.339z M1051.057,562.488l-361.334,58.79l-254.17,41.354
	l411.089-344.846l110.716-92.875c62.24,88.557,95.131,192.576,95.131,300.863C1052.488,536.881,1052.033,548.558,1051.057,562.488z"
	/>
</svg>
