<?xml version="1.0" encoding="utf-8"?>
<!-- Generator: Adobe Illustrator 16.0.0, SVG Export Plug-In . SVG Version: 6.00 Build 0)  -->
<!DOCTYPE svg PUBLIC "-//W3C//DTD SVG 1.1//EN" "http://www.w3.org/Graphics/SVG/1.1/DTD/svg11.dtd">
<svg version="1.1" id="Calque_1" xmlns="http://www.w3.org/2000/svg" xmlns:xlink="http://www.w3.org/1999/xlink" x="0px" y="0px"
	 width="1053px" height="1053px" viewBox="0 0 1053 1053" enable-background="new 0 0 1053 1053" xml:space="preserve">
<path fill="#010202" d="M997.13,289.232c-35.652-70.521-87.785-133.265-150.762-181.449c-37.27-28.519-78.196-51.931-121.643-69.587
	C661.54,12.52,594.846-0.5,526.494-0.5c-65.364,0-129.16,11.844-189.616,35.203c-58.354,22.548-111.854,55.099-159.014,96.75
	c-0.001,0-0.001,0.001-0.001,0.001c-4.979,4.402-9.988,9.016-15.312,14.103c-50.979,48.72-91.075,106.004-119.177,170.261
	C14.262,382.387-0.5,453.271-0.5,526.5c0,60.346,10.145,119.536,30.153,175.925c19.316,54.441,47.392,105.149,83.447,150.718
	c18.122,22.896,37.833,44.096,58.586,63.01c0.001,0.001,0.001,0.002,0.002,0.003c41.597,37.888,88.872,68.768,140.511,91.783
	l0.001,0.001c67.8,30.231,139.898,45.561,214.294,45.561c94.118,0,186.485-25.138,267.115-72.695
	c78.247-46.152,143.673-112.129,189.202-190.797c14.605-25.245,27.093-51.584,37.115-78.285
	c9.312-24.807,16.785-50.437,22.211-76.178v-0.001c7.532-35.823,11.351-72.511,11.351-109.044
	C1053.488,443.033,1034.526,363.204,997.13,289.232z M724.864,39.333c43.096,17.567,83.702,40.812,120.7,69.095l0.008,86.723
	l0.008,76.439L589.729,509.562l56.033-194.978L724.864,39.333z M337.238,35.636C397.579,12.321,461.254,0.5,526.494,0.5
	c68.072,0,134.496,12.937,197.438,38.454l-45.355,157.821l-90.084,313.463L479.544,409.575L178.941,131.837
	C225.91,90.439,279.165,58.075,337.238,35.636z M178.188,132.502l408.873,377.774l-247.062-53.658l-0.184-0.106L163.523,146.011
	C168.614,141.154,173.418,136.729,178.188,132.502z M30.596,702.091C10.626,645.809,0.5,586.731,0.5,526.5
	c0-73.09,14.733-143.839,43.79-210.281c27.963-63.939,67.827-120.964,118.488-169.496l176.234,310.4
	c0.032,0.056,0.074,0.106,0.125,0.146L113.426,851.941C77.66,806.61,49.793,756.196,30.596,702.091z M114.094,852.787
	l225.975-395.13l247.664,53.789L172.015,915.099C151.509,896.374,132.024,875.413,114.094,852.787z M793.102,979.943
	c-80.477,47.467-172.668,72.557-266.607,72.557c-73.819,0-145.372-15.121-212.695-44.945l319.562-103.85l347.93-113.067
	C935.875,868.656,870.824,934.101,793.102,979.943z M982.042,789.342L647.237,898.145l-334.805,108.803
	c-51.309-22.891-98.303-53.566-139.678-91.174l416.097-404.02l429.977,200.051C1008.874,738.247,996.499,764.331,982.042,789.342z
	 M1019.181,710.865l-429.546-199.85L845.96,272.603l70.517,131.129l124.645,231.785
	C1035.746,660.976,1028.365,686.32,1019.181,710.865z M1041.439,633.997L870.5,316.125l-23.92-44.48l-0.002-22.523l-0.014-139.928
	c62.497,48.011,114.24,110.403,149.673,180.49c37.325,73.831,56.251,153.507,56.251,236.816
	C1052.488,562.508,1048.771,598.667,1041.439,633.997z"/>
</svg>
