<?xml version="1.0" encoding="utf-8"?>
<!-- Generator: Adobe Illustrator 16.0.0, SVG Export Plug-In . SVG Version: 6.00 Build 0)  -->
<!DOCTYPE svg PUBLIC "-//W3C//DTD SVG 1.1//EN" "http://www.w3.org/Graphics/SVG/1.1/DTD/svg11.dtd">
<svg version="1.1" id="Calque_1" xmlns="http://www.w3.org/2000/svg" xmlns:xlink="http://www.w3.org/1999/xlink" x="0px" y="0px"
	 width="1053px" height="1053px" viewBox="0 0 1053 1053" enable-background="new 0 0 1053 1053" xml:space="preserve">
<path fill="#010202" d="M916.354,172.644c-19.488-21.467-41.417-41.806-65.174-60.454l-0.002-0.001
	c-45.396-35.621-95.845-63.353-149.938-82.422C645.208,10.016,586.417,0,526.5,0C415.702,0,309.716,34.029,220,98.407
	c-43.197,30.996-81.374,68.218-113.472,110.632c-32.437,42.862-58.001,90.163-75.985,140.589
	C13.01,398.779,2.937,450.256,0.604,502.625c0,0.001,0.001,0.003,0.001,0.004C0.192,511.83,0,519.415,0,526.5
	c0,157.749,69.859,305.851,191.666,406.332c46.153,38.075,97.916,67.762,153.847,88.235C403.398,1042.256,464.292,1053,526.5,1053
	c103.372,0,203.513-30.037,289.597-86.863c44.415-29.313,84.053-65.083,117.813-106.314c34.004-41.529,61.349-87.761,81.271-137.404
	C1040.274,659.88,1053,593.965,1053,526.5C1052.999,395.34,1004.472,269.672,916.354,172.644z M915.462,173.147l-40.376,353.118
	l-235.8,247.846l-49.513,52.042L851.103,113.4C874.546,131.849,896.198,151.948,915.462,173.147z M107.324,209.642
	c32.037-42.334,70.143-79.486,113.258-110.424C310.127,34.963,415.912,0.999,526.5,0.999c59.803,0,118.483,9.997,174.409,29.711
	c53.879,18.994,104.13,46.594,149.368,82.041L588.253,827.394L374.904,644.284L31.6,349.639
	C49.542,299.43,75.019,252.33,107.324,209.642z M31.241,350.647L355.79,629.194l228.64,196.232L1.618,502.361
	C3.959,450.439,13.925,399.405,31.241,350.647z M0.999,526.5c0-6.864,0.181-14.197,0.568-23.024l585.576,324.6L192.104,931.898
	C70.652,831.61,0.999,683.862,0.999,526.5z M526.5,1052.001c-62.091,0-122.868-10.724-180.643-31.872
	c-55.522-20.323-106.924-49.742-152.801-87.446L588.397,828.78l94.298,57.021l132.19,79.938
	C729.114,1022.174,629.41,1052.001,526.5,1052.001z M933.137,859.189c-33.63,41.073-73.101,76.714-117.327,105.938L589.265,828.137
	l161.703-169.962l124.547-130.908l138.64,195.032C994.275,771.752,967.019,817.81,933.137,859.189z M1014.595,721.194
	l-80.109-112.693l-58.402-82.157l40.272-352.21C1003.837,270.866,1052,395.957,1052,526.5
	C1052,593.532,1039.418,659.028,1014.595,721.194z"/>
</svg>
